<svg id="Capa_1" data-name="Capa 1" xmlns="http://www.w3.org/2000/svg" viewBox="0 0 732.42 511.93"><defs><style>.cls-1{fill:#f6df3d;}</style></defs><title>logo2</title><path class="cls-1" d="M-2282.09,3254.55l-1.14,21h-13.23l-1.23-21h15.6Z" transform="translate(2597.95 -3186.09)"/><path class="cls-1" d="M-2165.83,3254.55l-1.14,21h-13.23l-1.23-21h15.6Z" transform="translate(2597.95 -3186.09)"/><path class="cls-1" d="M-2339.88,3296.54l-1.14,21h-13.23l-1.23-21h15.6Z" transform="translate(2597.95 -3186.09)"/><path class="cls-1" d="M-2107.37,3296.54l-1.14,21h-13.23l-1.23-21h15.6Z" transform="translate(2597.95 -3186.09)"/><path class="cls-1" d="M-2223.62,3296.54l-1.14,21H-2238l-1.23-21h15.6Z" transform="translate(2597.95 -3186.09)"/><path class="cls-1" d="M-2012.66,3359.53c-6.32-96.54-102.18-173.44-219.1-173.44-121,0-219.44,82.37-219.44,183.62v10.18h585.66v-20.36h-147.12Zm-417.79,0c6.43-85.31,93.09-153.08,198.69-153.08s192.28,67.77,198.71,153.08h-397.4Z" transform="translate(2597.95 -3186.09)"/><path class="cls-1" d="M-2598,3504.21v20.36h147.1c6.32,96.54,102.2,173.44,219.1,173.44,121,0,219.44-82.37,219.44-183.62v-10.18H-2598Zm366.2,173.44c-105.6,0-192.26-67.77-198.69-153.08H-2033C-2039.47,3609.88-2126.15,3677.65-2231.76,3677.65Z" transform="translate(2597.95 -3186.09)"/><path class="cls-1" d="M-2593.69,3424.23a28.49,28.49,0,0,1,11.28-11.83,34,34,0,0,1,17.26-4.22,35.11,35.11,0,0,1,15.27,3.2,28.22,28.22,0,0,1,11,9,32.79,32.79,0,0,1,5.61,13.64H-2555a11.77,11.77,0,0,0-4.22-5.06,11.11,11.11,0,0,0-6.26-1.81,9.83,9.83,0,0,0-8.21,3.9q-3,3.9-3,10.49t3,10.49a9.82,9.82,0,0,0,8.21,3.9,11.1,11.1,0,0,0,6.26-1.81,11.76,11.76,0,0,0,4.22-5.06h21.72a32.8,32.8,0,0,1-5.61,13.64,28.23,28.23,0,0,1-11,9,35.12,35.12,0,0,1-15.27,3.2,34,34,0,0,1-17.26-4.22,28.48,28.48,0,0,1-11.28-11.83,37.15,37.15,0,0,1-3.94-17.35A37.16,37.16,0,0,1-2593.69,3424.23Z" transform="translate(2597.95 -3186.09)"/><path class="cls-1" d="M-2505.29,3458.94h19.86v15.59h-40.46v-65.71h20.6v50.11Z" transform="translate(2597.95 -3186.09)"/><path class="cls-1" d="M-2458.33,3408.83v65.71h-20.6v-65.71h20.6Z" transform="translate(2597.95 -3186.09)"/><path class="cls-1" d="M-2447,3424.23a28.49,28.49,0,0,1,11.28-11.83,34,34,0,0,1,17.26-4.22,35.11,35.11,0,0,1,15.27,3.2,28.22,28.22,0,0,1,11,9,32.79,32.79,0,0,1,5.61,13.64h-21.72a11.77,11.77,0,0,0-4.22-5.06,11.11,11.11,0,0,0-6.26-1.81,9.83,9.83,0,0,0-8.21,3.9q-3,3.9-3,10.49t3,10.49a9.82,9.82,0,0,0,8.21,3.9,11.1,11.1,0,0,0,6.26-1.81,11.76,11.76,0,0,0,4.22-5.06h21.72a32.8,32.8,0,0,1-5.61,13.64,28.23,28.23,0,0,1-11,9,35.12,35.12,0,0,1-15.27,3.2,34,34,0,0,1-17.26-4.22,28.48,28.48,0,0,1-11.28-11.83,37.15,37.15,0,0,1-3.94-17.35A37.16,37.16,0,0,1-2447,3424.23Z" transform="translate(2597.95 -3186.09)"/><path class="cls-1" d="M-2339.45,3474.53l-19.12-28.49v28.49h-20.6v-65.71h20.6v27.66l18.84-27.66h23.29l-22.64,31.46,24.13,34.25h-24.5Z" transform="translate(2597.95 -3186.09)"/><path class="cls-1" d="M-2302.84,3469.66q-7.66-5.52-8.31-16.19h21.9q0.46,5.66,5,5.66a4.91,4.91,0,0,0,2.83-.79,2.77,2.77,0,0,0,1.16-2.46,4.27,4.27,0,0,0-2.51-3.76,50.06,50.06,0,0,0-7.8-3.29,83.86,83.86,0,0,1-10.44-4.36,20.2,20.2,0,0,1-7.1-6.22q-3-4.08-2.88-10.49a18,18,0,0,1,3.29-10.9,20.36,20.36,0,0,1,9-6.82,33.88,33.88,0,0,1,12.85-2.32q12.06,0,19.16,5.57t7.47,15.68h-22.18a5.52,5.52,0,0,0-1.39-4,4.48,4.48,0,0,0-3.16-1.21,2.81,2.81,0,0,0-2.13.88,3.44,3.44,0,0,0-.83,2.46,4.21,4.21,0,0,0,2.46,3.67,56.14,56.14,0,0,0,7.84,3.48,89.07,89.07,0,0,1,10.25,4.45,21.74,21.74,0,0,1,7,5.94,15.07,15.07,0,0,1,3,9.56,20.06,20.06,0,0,1-3,10.81,19.91,19.91,0,0,1-8.63,7.47,31.06,31.06,0,0,1-13.46,2.69Q-2295.18,3475.18-2302.84,3469.66Z" transform="translate(2597.95 -3186.09)"/><path class="cls-1" d="M-2182.1,3446.55a16,16,0,0,1,3.29,10q0,8.63-5.71,13.32t-16.38,4.69h-34.43v-65.71h33.5q10,0,15.78,4.36t5.75,12.71a15.5,15.5,0,0,1-3,9.7,14.31,14.31,0,0,1-8,5.24A15.67,15.67,0,0,1-2182.1,3446.55Zm-32.62-12.11h8a6.39,6.39,0,0,0,4.13-1.11,4.2,4.2,0,0,0,1.35-3.43,4.47,4.47,0,0,0-1.35-3.57,6.21,6.21,0,0,0-4.13-1.16h-8v9.28Zm13.5,22.5a4.18,4.18,0,0,0,1.35-3.48q0-4.73-5.48-4.73h-9.37V3458h9.37A6.59,6.59,0,0,0-2201.22,3456.95Z" transform="translate(2597.95 -3186.09)"/><path class="cls-1" d="M-2151.7,3408.83v37a11.67,11.67,0,0,0,2,7.19q2,2.65,6.45,2.64t6.59-2.64a11.13,11.13,0,0,0,2.13-7.19v-37H-2114v37a31.07,31.07,0,0,1-3.9,16,25,25,0,0,1-10.67,10,33.74,33.74,0,0,1-15.13,3.34,31.72,31.72,0,0,1-14.8-3.34,23.78,23.78,0,0,1-10.07-9.93q-3.62-6.59-3.62-16.06v-37h20.51Z" transform="translate(2597.95 -3186.09)"/><path class="cls-1" d="M-2072.08,3474.53l-12.34-23.57h-0.09v23.57h-20.6v-65.71h30.63a30.24,30.24,0,0,1,13.64,2.83,19.68,19.68,0,0,1,8.49,7.7,21.49,21.49,0,0,1,2.83,11,19.54,19.54,0,0,1-3.67,11.69,20.15,20.15,0,0,1-10.53,7.33l14.29,25.15h-22.64Zm-12.44-37.31h8.17a6.45,6.45,0,0,0,4.45-1.35,5.44,5.44,0,0,0,1.48-4.22,5.43,5.43,0,0,0-1.53-4.08,6.09,6.09,0,0,0-4.41-1.48h-8.17v11.14Z" transform="translate(2597.95 -3186.09)"/><path class="cls-1" d="M-2002.66,3431.29a8,8,0,0,0-3.43-3,12.4,12.4,0,0,0-5.38-1.07q-5.94,0-9.19,3.85t-3.25,10.53q0,7.71,3.62,11.51t11.14,3.81a13.75,13.75,0,0,0,11.51-5.75h-16.43v-14.57h33.5v20.6a39.56,39.56,0,0,1-11.79,12.58q-7.52,5.24-19,5.24a35.86,35.86,0,0,1-17.77-4.22,28.68,28.68,0,0,1-11.6-11.83,36.46,36.46,0,0,1-4-17.35,36.47,36.47,0,0,1,4-17.35,28.77,28.77,0,0,1,11.55-11.83,35.41,35.41,0,0,1,17.63-4.22q12.9,0,21,6.22a24.68,24.68,0,0,1,9.61,16.89h-21.72Z" transform="translate(2597.95 -3186.09)"/><path class="cls-1" d="M-1952.54,3425.25v8.07h20.42v15.5h-20.42v9.28h23.2v16.43h-43.8v-65.71h43.8v16.43h-23.2Z" transform="translate(2597.95 -3186.09)"/><path class="cls-1" d="M-1888.51,3474.53l-12.34-23.57h-0.09v23.57h-20.6v-65.71h30.63a30.24,30.24,0,0,1,13.64,2.83,19.68,19.68,0,0,1,8.49,7.7,21.49,21.49,0,0,1,2.83,11,19.54,19.54,0,0,1-3.67,11.69,20.15,20.15,0,0,1-10.53,7.33l14.29,25.15h-22.64Zm-12.44-37.31h8.17a6.45,6.45,0,0,0,4.45-1.35,5.44,5.44,0,0,0,1.48-4.22,5.43,5.43,0,0,0-1.53-4.08,6.09,6.09,0,0,0-4.41-1.48h-8.17v11.14Z" transform="translate(2597.95 -3186.09)"/></svg>